<?xml version="1.0" encoding="utf-8"?>
<!-- Generator: Adobe Illustrator 22.0.1, SVG Export Plug-In . SVG Version: 6.00 Build 0)  -->
<svg version="1.1" id="Layer_1" xmlns="http://www.w3.org/2000/svg" xmlns:xlink="http://www.w3.org/1999/xlink" x="0px" y="0px"
	 viewBox="0 0 512 512" style="enable-background:new 0 0 512 512;" xml:space="preserve">
<style type="text/css">
	.st0{fill:none;stroke:#000092;stroke-width:15;stroke-linecap:round;stroke-linejoin:round;stroke-miterlimit:10;}
</style>
<g>
	<path class="st0" d="M319.9,54.7h140.2c12.8,0,23.1,10.4,23.1,23.1v270.2c0,12.8-10.4,23.1-23.1,23.1H51.9
		c-12.8,0-23.1-10.4-23.1-23.1V77.8c0-12.8,10.4-23.1,23.1-23.1h145.3"/>
	<path class="st0" d="M299.7,106.1h-82.4c-8.7,0-15.8-7.1-15.8-15.8V25.3c0-8.7,7.1-15.8,15.8-15.8h82.4c8.7,0,15.8,7.1,15.8,15.8
		v64.9C315.5,99,308.5,106.1,299.7,106.1z"/>
	<line class="st0" x1="251.4" y1="403.8" x2="251.4" y2="502.5"/>
	<line class="st0" x1="212.9" y1="403.8" x2="155.8" y2="502.5"/>
	<line class="st0" x1="295.2" y1="403.8" x2="341.7" y2="502.5"/>
</g>
</svg>
