<?xml version="1.0" encoding="utf-8"?>
<!-- Generator: Adobe Illustrator 22.0.1, SVG Export Plug-In . SVG Version: 6.00 Build 0)  -->
<svg version="1.1" id="Layer_1" xmlns="http://www.w3.org/2000/svg" xmlns:xlink="http://www.w3.org/1999/xlink" x="0px" y="0px"
	 viewBox="0 0 512 512" style="enable-background:new 0 0 512 512;" xml:space="preserve">
<style type="text/css">
	.st0{fill:none;stroke:#000092;stroke-width:15;stroke-linecap:round;stroke-linejoin:round;stroke-miterlimit:10;}
	.st1{fill:#000092;stroke:#000092;stroke-width:3;stroke-miterlimit:10;}
</style>
<g>
	<polyline class="st0" points="9.5,345.9 61.3,224.4 109.7,345.9 	"/>
	<line class="st0" x1="35.4" y1="285.1" x2="85.5" y2="285.1"/>
	<polyline class="st0" points="103.4,159 229.4,159 166.4,159 166.4,345.9 	"/>
	<polyline class="st0" points="182.9,103.3 346.1,103.3 264.2,103.3 264.2,345.9 	"/>
	<line class="st0" x1="351.9" y1="159" x2="351.9" y2="345.9"/>
	<path class="st0" d="M502.5,323.8c-16.5,20-44.6,28-70.4,17.4c-17.3-7.1-30.6-22.4-35.2-40.6c-10.1-39.9,20.4-76.3,58.8-76.3
		c15.6,0,30.6,6,41.9,16.8"/>
	<line class="st0" x1="109.7" y1="393.4" x2="9.5" y2="393.4"/>
	<line class="st0" x1="502.5" y1="393.4" x2="394.9" y2="393.4"/>
	<g>
		<path class="st1" d="M144.8,407.9c-1.6-0.5-3.1-1.4-4.6-2.7c-0.8-0.7-1.2-1.5-1.2-2.3c0-0.7,0.2-1.3,0.7-1.8
			c0.5-0.5,1.1-0.8,1.8-0.8c0.6,0,1,0.2,1.5,0.5c1.2,1,2.3,1.7,3.4,2.1c1.1,0.4,2.4,0.7,3.9,0.7c1.6,0,3-0.4,4.2-1.1
			c1.2-0.7,1.8-1.6,1.8-2.7c0-1.3-0.6-2.3-1.7-3.1c-1.2-0.7-3-1.3-5.5-1.7c-6.4-0.9-9.5-3.9-9.5-8.9c0-1.8,0.5-3.4,1.4-4.8
			c1-1.4,2.3-2.4,3.9-3.1c1.7-0.7,3.5-1.1,5.5-1.1c1.8,0,3.5,0.3,5.2,0.8c1.6,0.6,3,1.3,4,2.2c0.8,0.7,1.3,1.4,1.3,2.3
			c0,0.7-0.2,1.2-0.7,1.8c-0.5,0.5-1.1,0.8-1.7,0.8c-0.4,0-0.8-0.1-1.2-0.4c-0.7-0.6-1.8-1.2-3.2-1.7c-1.4-0.5-2.6-0.8-3.6-0.8
			c-1.8,0-3.2,0.3-4.3,1c-1,0.7-1.5,1.6-1.5,2.7c0,1.2,0.5,2.2,1.5,2.8c1,0.6,2.7,1.2,4.9,1.6c2.5,0.4,4.5,1,6,1.7
			c1.5,0.7,2.6,1.6,3.4,2.8c0.7,1.2,1.1,2.7,1.1,4.7c0,1.8-0.5,3.4-1.5,4.8c-1,1.4-2.4,2.4-4.1,3.2c-1.7,0.7-3.6,1.1-5.5,1.1
			C148.3,408.7,146.5,408.4,144.8,407.9z"/>
		<path class="st1" d="M209.2,379.1c1.3,0.9,2.4,2.1,3.2,3.6c0.8,1.5,1.2,3.1,1.2,4.9c0,1.7-0.4,3.4-1.2,4.9
			c-0.8,1.5-1.9,2.7-3.2,3.6c-1.3,0.9-2.7,1.3-4.2,1.3h-7.6v8.2c0,0.8-0.2,1.4-0.7,1.9c-0.5,0.5-1.1,0.7-1.8,0.7
			c-0.7,0-1.3-0.2-1.8-0.8s-0.7-1.1-0.7-1.9v-25.2c0-0.8,0.2-1.4,0.8-1.9c0.5-0.5,1.1-0.8,1.9-0.8h9.9
			C206.4,377.8,207.8,378.2,209.2,379.1z M206.6,391.7c0.5-0.5,1-1.1,1.3-1.8c0.3-0.7,0.5-1.5,0.5-2.3c0-0.8-0.2-1.6-0.5-2.3
			c-0.3-0.7-0.8-1.3-1.3-1.8c-0.5-0.5-1.1-0.7-1.6-0.7h-7.6v9.6h7.6C205.5,392.4,206,392.2,206.6,391.7z"/>
		<path class="st1" d="M266.7,405.9c0,0.7-0.2,1.4-0.7,1.9c-0.5,0.5-1.1,0.7-1.7,0.7c-0.5,0-1-0.2-1.4-0.5c-0.4-0.3-0.7-0.8-1-1.3
			l-2.3-5.3h-13l-2.3,5.3c-0.2,0.5-0.5,1-0.9,1.3c-0.4,0.3-0.9,0.5-1.4,0.5c-0.8,0-1.3-0.2-1.7-0.6c-0.4-0.4-0.6-1-0.6-1.6
			c0-0.3,0-0.5,0.1-0.8l10.9-26.1c0.2-0.6,0.6-1,1-1.4c0.5-0.3,1-0.5,1.6-0.4c0.5,0,1,0.2,1.5,0.5c0.4,0.3,0.8,0.7,1,1.3l10.7,25.5
			C266.6,405.2,266.7,405.6,266.7,405.9z M248.8,396.4h8.7l-4.4-10.2L248.8,396.4z"/>
		<path class="st1" d="M318.6,381.5c0,0.6-0.2,1.2-0.7,1.8c-0.5,0.6-1.1,0.9-1.8,0.9c-0.5,0-1-0.1-1.5-0.4c-1.4-0.7-3-1-4.6-1
			c-2,0-3.8,0.4-5.3,1.3c-1.5,0.9-2.7,2.1-3.5,3.6c-0.8,1.6-1.2,3.3-1.2,5.3c0,3.4,0.9,6,2.8,7.8c1.9,1.8,4.3,2.7,7.3,2.7
			c1.8,0,3.3-0.3,4.6-1c0.5-0.2,1-0.3,1.4-0.3c0.8,0,1.4,0.3,1.9,1c0.4,0.6,0.7,1.1,0.7,1.8c0,0.5-0.1,0.9-0.4,1.3
			c-0.2,0.4-0.6,0.7-1,0.9c-2.3,1.1-4.7,1.7-7.2,1.7c-2.8,0-5.5-0.6-7.8-1.8c-2.4-1.2-4.3-3-5.7-5.3c-1.4-2.4-2.1-5.2-2.1-8.5
			c0-3,0.7-5.6,2-8c1.4-2.4,3.2-4.2,5.6-5.5c2.4-1.3,5.1-2,8.1-2c2.6,0,5,0.6,7.2,1.7C318.1,379.7,318.6,380.4,318.6,381.5z"/>
		<path class="st1" d="M368.1,404c0.5,0.5,0.8,1.1,0.8,1.8c0,0.7-0.2,1.3-0.8,1.8c-0.5,0.5-1.1,0.7-1.9,0.7h-14.6
			c-0.7,0-1.4-0.2-1.9-0.8s-0.8-1.1-0.8-1.9v-25.2c0-0.8,0.2-1.4,0.8-1.9c0.5-0.5,1.1-0.8,1.9-0.8h14.6c0.8,0,1.4,0.2,1.9,0.7
			s0.8,1.1,0.8,1.9c0,0.7-0.2,1.3-0.7,1.8c-0.5,0.4-1.1,0.7-1.9,0.7h-11.8v7.4h9.8c0.8,0,1.4,0.2,1.9,0.7c0.5,0.5,0.8,1.1,0.8,1.9
			c0,0.7-0.2,1.3-0.7,1.8c-0.5,0.4-1.1,0.7-1.9,0.7h-9.8v8.1h11.8C366.9,403.3,367.6,403.5,368.1,404z"/>
	</g>
</g>
</svg>
