<?xml version="1.0" encoding="utf-8"?>
<!-- Generator: Adobe Illustrator 22.0.1, SVG Export Plug-In . SVG Version: 6.00 Build 0)  -->
<svg version="1.1" id="Layer_1" xmlns="http://www.w3.org/2000/svg" xmlns:xlink="http://www.w3.org/1999/xlink" x="0px" y="0px"
	 viewBox="0 0 512 512" style="enable-background:new 0 0 512 512;" xml:space="preserve">
<style type="text/css">
	.st0{fill:none;stroke:#000092;stroke-width:15;stroke-linecap:round;stroke-linejoin:round;stroke-miterlimit:10;}
</style>
<g>
	<path class="st0" d="M294.1,74.4c0,0,11.2,5.6,11.2,131.8s-5.6,134.1-5.6,134.1s-41.1-65.4-151.4-65.4S9.5,264.1,9.5,212.3
		s64.5-67.8,139.7-67.8S259,114.6,294.1,74.4z"/>
	<path class="st0" d="M304.5,154.3c0,0,0.2,57.5,0.8,98.8c0,0,55.6,2.3,55.6-49.3S304.5,154.3,304.5,154.3z"/>
	<path class="st0" d="M72.5,293.8l96.4,6l2.8,36.1c0,0,21.7-4.9,21.7,20c0,24.9-16.8,23.8-16.8,23.8s9.5,43.1,26.6,62h-76.4
		L72.5,293.8z"/>
	<path class="st0" d="M444.3,200.9c0,41.2-19.6,77.7-50.1,100.8l-22.5-29.6c21.5-16.3,35.4-42.1,35.4-71.2c0-24.7-10-47-26.2-63.2
		l26.3-26.2C430.2,134.3,444.3,166,444.3,200.9z"/>
	<path class="st0" d="M502.5,200.9c0,60.1-28.7,113.4-73.1,147.2l-21.2-28c36-27.3,59.2-70.5,59.2-119.2
		c0-41.3-16.8-78.7-43.8-105.8l24.8-24.8C481.8,103.7,502.5,149.9,502.5,200.9z"/>
</g>
</svg>
