<?xml version="1.0" encoding="utf-8"?>
<!-- Generator: Adobe Illustrator 22.0.1, SVG Export Plug-In . SVG Version: 6.00 Build 0)  -->
<svg version="1.1" id="Layer_1" xmlns="http://www.w3.org/2000/svg" xmlns:xlink="http://www.w3.org/1999/xlink" x="0px" y="0px"
	 viewBox="0 0 512 512" style="enable-background:new 0 0 512 512;" xml:space="preserve">
<style type="text/css">
	.st0{fill:none;stroke:#000092;stroke-width:15;stroke-linecap:round;stroke-linejoin:round;stroke-miterlimit:10;}
</style>
<g>
	<path class="st0" d="M493.1,47.3l9.4,234.7L475,311c0,0-19.6-73.8-47.9-45.5s0,91.8,0,91.8l-94.2,106c0,0-192.3,20.4-323.4-95
		V174.4L493.1,47.3z"/>
	<polyline class="st0" points="332.9,463.3 322.7,242 493.1,47.3 	"/>
	<path class="st0" d="M9.5,174.4c0,0,85.6,66.7,313.2,67.5"/>
	<ellipse class="st0" cx="181.4" cy="177.2" rx="38.5" ry="20"/>
	<path class="st0" d="M414,137.7c0,0-62.2-33.1-100.7,12.4c-14.9,20.4,48.6,47.1,48.6,47.1"/>
</g>
</svg>
