<?xml version="1.0" encoding="utf-8"?>
<!-- Generator: Adobe Illustrator 22.0.1, SVG Export Plug-In . SVG Version: 6.00 Build 0)  -->
<svg version="1.1" id="Layer_1" xmlns="http://www.w3.org/2000/svg" xmlns:xlink="http://www.w3.org/1999/xlink" x="0px" y="0px"
	 viewBox="0 0 512 512" style="enable-background:new 0 0 512 512;" xml:space="preserve">
<style type="text/css">
	.st0{fill:none;stroke:#000092;stroke-width:15;stroke-linecap:round;stroke-linejoin:round;stroke-miterlimit:10;}
</style>
<g>
	<path class="st0" d="M436.5,136.4H92.9V28.5c0-10.5,8.5-19,19-19h305.6c10.5,0,19,8.5,19,19V136.4z"/>
	<path class="st0" d="M82.5,390.3H10.3V183.6c0-26.1,21.1-47.2,47.2-47.2h397.1c26.1,0,47.2,21.1,47.2,47.2v206.7h-65.2"/>
	<rect x="84.2" y="284.4" class="st0" width="343.6" height="218.1"/>
	<line class="st0" x1="63.1" y1="284.4" x2="448.9" y2="284.4"/>
	<line class="st0" x1="146.5" y1="339.5" x2="365.5" y2="339.5"/>
	<line class="st0" x1="146.5" y1="383.4" x2="365.5" y2="383.4"/>
	<line class="st0" x1="146.5" y1="427.2" x2="365.5" y2="427.2"/>
	<circle class="st0" cx="82.5" cy="206.3" r="29.9"/>
</g>
</svg>
