<?xml version="1.0" encoding="utf-8"?>
<!-- Generator: Adobe Illustrator 22.0.1, SVG Export Plug-In . SVG Version: 6.00 Build 0)  -->
<svg version="1.1" id="Layer_1" xmlns="http://www.w3.org/2000/svg" xmlns:xlink="http://www.w3.org/1999/xlink" x="0px" y="0px"
	 viewBox="0 0 512 512" style="enable-background:new 0 0 512 512;" xml:space="preserve">
<style type="text/css">
	.st0{fill:none;stroke:#000092;stroke-width:15;stroke-linecap:round;stroke-linejoin:round;stroke-miterlimit:10;}
</style>
<g>
	<path class="st0" d="M450.7,502.5H61.3c-19,0-34.5-15.4-34.5-34.5v-89.3c0-19,15.4-34.5,34.5-34.5h389.4c19,0,34.5,15.4,34.5,34.5
		V468C485.2,487.1,469.7,502.5,450.7,502.5z"/>
	<line class="st0" x1="73.6" y1="380.9" x2="73.6" y2="446.1"/>
	<line class="st0" x1="114.1" y1="380.9" x2="114.1" y2="446.1"/>
	<line class="st0" x1="155" y1="380.9" x2="155" y2="446.1"/>
	<line class="st0" x1="199.3" y1="380.9" x2="199.3" y2="446.1"/>
	<rect x="253.1" y="380.9" class="st0" width="65.2" height="65.2"/>
	<line class="st0" x1="92" y1="193.4" x2="373.7" y2="344.2"/>
	<path class="st0" d="M80.3,9.5C80.3,9.5,223,23,247,176.2"/>
	<path class="st0" d="M80.3,54.4c0,0,95.7,9.4,119,121.8"/>
	<path class="st0" d="M80.3,100.5c0,0,60.9,3.1,70.7,75.6"/>
</g>
</svg>
